<svg width="118" height="118" viewBox="0 0 118 118" fill="none" xmlns="http://www.w3.org/2000/svg">
<path d="M59.0001 116.683C91.2839 116.683 117.467 90.864 117.467 59C117.467 27.136 91.2839 1.31665 59.0001 1.31665C26.7163 1.31665 0.533447 27.136 0.533447 59C0.533447 90.864 26.7163 116.683 59.0001 116.683Z" fill="url(#paint0_linear_136_2234)" stroke="url(#paint1_linear_136_2234)"/>
<g filter="url(#filter0_dd_136_2234)">
<circle cx="59" cy="59" r="47" fill="#222222"/>
<circle cx="59" cy="59" r="46.5" stroke="#343434"/>
</g>
<path d="M26.6307 58.1667L30.0507 41.4867H25.7607L26.8407 36.7467H41.2107L40.1007 41.4867H35.7807L32.3607 58.1667H26.6307ZM39.3089 58.1667L42.8189 41.5767H48.5489L44.9789 58.1667H39.3089ZM46.2689 39.9867C45.4889 39.9867 44.8289 39.8367 44.2889 39.5367C43.7689 39.2167 43.5089 38.6867 43.5089 37.9467C43.5089 37.2667 43.6389 36.7067 43.8989 36.2667C44.1789 35.8067 44.5689 35.4567 45.0689 35.2167C45.5689 34.9767 46.1589 34.8567 46.8389 34.8567C47.5789 34.8567 48.2189 35.0067 48.7589 35.3067C49.3189 35.6067 49.5989 36.1367 49.5989 36.8967C49.5989 37.8167 49.3289 38.5667 48.7889 39.1467C48.2489 39.7067 47.4089 39.9867 46.2689 39.9867ZM48.4518 58.1667L51.9618 41.5767H56.5518L56.2818 44.3067H56.4018C56.7818 43.5667 57.1818 42.9767 57.6018 42.5367C58.0218 42.0967 58.5018 41.7767 59.0418 41.5767C59.5818 41.3767 60.2118 41.2767 60.9318 41.2767C62.0118 41.2767 62.8418 41.5367 63.4218 42.0567C64.0018 42.5767 64.4218 43.3267 64.6818 44.3067H64.8018C65.2218 43.6067 65.6618 43.0367 66.1218 42.5967C66.6018 42.1567 67.1218 41.8267 67.6818 41.6067C68.2618 41.3867 68.8918 41.2767 69.5718 41.2767C70.8518 41.2767 71.8318 41.6867 72.5118 42.5067C73.1918 43.3067 73.5318 44.4967 73.5318 46.0767C73.5318 46.5367 73.4918 47.0367 73.4118 47.5767C73.3518 48.1167 73.2718 48.6467 73.1718 49.1667L71.3718 58.1667H65.7018L67.5618 48.9267C67.6018 48.7267 67.6518 48.4567 67.7118 48.1167C67.7718 47.7567 67.8018 47.3667 67.8018 46.9467C67.8018 46.5667 67.7218 46.2767 67.5618 46.0767C67.4018 45.8767 67.1918 45.7767 66.9318 45.7767C66.6318 45.7767 66.3518 45.8767 66.0918 46.0767C65.8518 46.2567 65.6318 46.5367 65.4318 46.9167C65.2318 47.2767 65.0518 47.7367 64.8918 48.2967C64.7318 48.8367 64.5718 49.4767 64.4118 50.2167L62.7618 58.1667H57.0918L58.9818 48.9267C59.0218 48.7067 59.0718 48.4167 59.1318 48.0567C59.1918 47.6767 59.2218 47.3667 59.2218 47.1267C59.2218 46.6467 59.1318 46.3067 58.9518 46.1067C58.7718 45.8867 58.5618 45.7767 58.3218 45.7767C58.1018 45.7767 57.8818 45.8467 57.6618 45.9867C57.4618 46.1067 57.2618 46.3267 57.0618 46.6467C56.8818 46.9667 56.6918 47.4067 56.4918 47.9667C56.2918 48.5267 56.1018 49.2367 55.9218 50.0967L54.1218 58.1667H48.4518ZM81.7555 58.4667C80.4155 58.4667 79.2855 58.2067 78.3655 57.6867C77.4455 57.1667 76.7455 56.4267 76.2655 55.4667C75.8055 54.4867 75.5755 53.3267 75.5755 51.9867C75.5755 50.6267 75.7555 49.3067 76.1155 48.0267C76.4955 46.7467 77.0655 45.6067 77.8255 44.6067C78.5855 43.5867 79.5455 42.7767 80.7055 42.1767C81.8655 41.5767 83.2355 41.2767 84.8155 41.2767C86.5755 41.2767 87.9655 41.6967 88.9855 42.5367C90.0255 43.3567 90.5455 44.4567 90.5455 45.8367C90.5455 46.7567 90.3755 47.5967 90.0355 48.3567C89.7155 49.1167 89.2155 49.7667 88.5355 50.3067C87.8555 50.8467 86.9855 51.2667 85.9255 51.5667C84.8655 51.8467 83.5955 51.9867 82.1155 51.9867H81.2755C81.2755 52.0267 81.2755 52.0667 81.2755 52.1067C81.2755 52.1467 81.2755 52.1867 81.2755 52.2267C81.2755 52.9667 81.4455 53.5167 81.7855 53.8767C82.1455 54.2167 82.6855 54.3867 83.4055 54.3867C84.2055 54.3867 84.9655 54.2567 85.6855 53.9967C86.4255 53.7367 87.1955 53.3867 87.9955 52.9467L87.9355 56.9667C87.0755 57.4067 86.1855 57.7667 85.2655 58.0467C84.3655 58.3267 83.1955 58.4667 81.7555 58.4667ZM82.2055 48.4467C82.9655 48.4467 83.5555 48.3367 83.9755 48.1167C84.4155 47.8767 84.7255 47.5867 84.9055 47.2467C85.0855 46.8867 85.1755 46.5367 85.1755 46.1967C85.1755 45.8967 85.0855 45.6467 84.9055 45.4467C84.7455 45.2267 84.4755 45.1167 84.0955 45.1167C83.6955 45.1167 83.3355 45.2867 83.0155 45.6267C82.6955 45.9667 82.4355 46.3967 82.2355 46.9167C82.0555 47.4167 81.9355 47.9267 81.8755 48.4467H82.2055ZM33.7747 83.4667C32.0547 83.4667 30.6147 83.1367 29.4547 82.4767C28.2947 81.7967 27.4247 80.8467 26.8447 79.6267C26.2847 78.4067 26.0047 76.9767 26.0047 75.3367C26.0047 74.2167 26.1047 73.1067 26.3047 72.0067C26.5047 70.8867 26.8047 69.8067 27.2047 68.7667C27.6247 67.7267 28.1347 66.7667 28.7347 65.8867C29.3547 64.9867 30.0847 64.2067 30.9247 63.5467C31.7647 62.8667 32.7047 62.3467 33.7447 61.9867C34.8047 61.6067 35.9747 61.4167 37.2547 61.4167C39.7547 61.4167 41.6447 62.1567 42.9247 63.6367C44.2047 65.1167 44.8447 67.0867 44.8447 69.5467C44.8447 70.6467 44.7447 71.7567 44.5447 72.8767C44.3447 73.9967 44.0447 75.0767 43.6447 76.1167C43.2647 77.1567 42.7647 78.1267 42.1447 79.0267C41.5447 79.9067 40.8347 80.6867 40.0147 81.3667C39.1947 82.0267 38.2647 82.5467 37.2247 82.9267C36.1847 83.2867 35.0347 83.4667 33.7747 83.4667ZM34.3747 78.7267C34.8147 78.7267 35.2347 78.6167 35.6347 78.3967C36.0347 78.1767 36.4047 77.8667 36.7447 77.4667C37.0847 77.0667 37.3947 76.5867 37.6747 76.0267C37.9747 75.4667 38.2247 74.8567 38.4247 74.1967C38.6247 73.5167 38.7747 72.7967 38.8747 72.0367C38.9947 71.2767 39.0547 70.4867 39.0547 69.6667C39.0547 68.5667 38.8547 67.7067 38.4547 67.0867C38.0547 66.4667 37.4747 66.1567 36.7147 66.1567C36.2147 66.1567 35.7447 66.2867 35.3047 66.5467C34.8847 66.7867 34.4847 67.1267 34.1047 67.5667C33.7447 68.0067 33.4247 68.5167 33.1447 69.0967C32.8647 69.6767 32.6147 70.3067 32.3947 70.9867C32.1947 71.6667 32.0447 72.3767 31.9447 73.1167C31.8447 73.8367 31.7947 74.5567 31.7947 75.2767C31.7947 76.0167 31.8847 76.6467 32.0647 77.1667C32.2647 77.6867 32.5547 78.0767 32.9347 78.3367C33.3147 78.5967 33.7947 78.7267 34.3747 78.7267ZM50.7991 83.4667C49.8191 83.4667 49.0191 83.2567 48.3991 82.8367C47.7791 82.3967 47.3291 81.8267 47.0491 81.1267C46.7691 80.4267 46.6291 79.6567 46.6291 78.8167C46.6291 78.2567 46.6591 77.6867 46.7191 77.1067C46.7991 76.5067 46.8891 75.9367 46.9891 75.3967L48.8491 66.5767H54.5191L52.6591 75.6067C52.6191 75.8667 52.5591 76.1967 52.4791 76.5967C52.4191 76.9967 52.3891 77.3667 52.3891 77.7067C52.3891 78.1067 52.4891 78.4167 52.6891 78.6367C52.8891 78.8367 53.0991 78.9367 53.3191 78.9367C53.5591 78.9367 53.8091 78.7867 54.0691 78.4867C54.3491 78.1867 54.6191 77.7167 54.8791 77.0767C55.1591 76.4367 55.3991 75.6267 55.5991 74.6467L57.3391 66.5767H63.0391L59.5291 83.1667H54.9691L55.1191 80.8567H55.0291C54.6891 81.4767 54.3091 81.9767 53.8891 82.3567C53.4891 82.7367 53.0391 83.0167 52.5391 83.1967C52.0391 83.3767 51.4591 83.4667 50.7991 83.4667ZM68.4709 83.4667C67.0909 83.4667 66.0509 83.1667 65.3509 82.5667C64.6509 81.9467 64.3009 80.9367 64.3009 79.5367C64.3009 79.1167 64.3509 78.6467 64.4509 78.1267C64.5509 77.6067 64.6409 77.1367 64.7209 76.7167L65.8609 70.8367H63.7009L64.3309 68.0467L67.4509 66.7567L69.4009 63.2467H73.2109L72.4909 66.5767H76.5409L75.5509 70.8367H71.5309L70.3909 76.4467C70.3309 76.7267 70.2709 77.0167 70.2109 77.3167C70.1509 77.5967 70.1209 77.8267 70.1209 78.0067C70.1209 78.3267 70.1909 78.5567 70.3309 78.6967C70.4909 78.8367 70.6809 78.9067 70.9009 78.9067C71.2409 78.9067 71.6409 78.8467 72.1009 78.7267C72.5809 78.5867 73.0509 78.4167 73.5109 78.2167L73.4809 82.4767C72.8609 82.7767 72.1409 83.0167 71.3209 83.1967C70.5209 83.3767 69.5709 83.4667 68.4709 83.4667ZM79.3203 75.6067C79.5003 74.7667 79.6803 74.0667 79.8603 73.5067C80.0403 72.9267 80.2703 72.4267 80.5503 72.0067C80.8303 71.5867 81.1803 71.1867 81.6003 70.8067C82.0403 70.4067 82.5903 69.9767 83.2503 69.5167C83.8303 69.1167 84.2703 68.7767 84.5703 68.4967C84.8903 68.1967 85.1103 67.9267 85.2303 67.6867C85.3703 67.4467 85.4403 67.2067 85.4403 66.9667C85.4403 66.6867 85.3603 66.4567 85.2003 66.2767C85.0603 66.0767 84.7703 65.9767 84.3303 65.9767C83.8503 65.9767 83.2203 66.1067 82.4403 66.3667C81.6803 66.6267 80.8503 67.0267 79.9503 67.5667L78.2403 63.4267C79.1403 62.8667 80.1403 62.3967 81.2403 62.0167C82.3603 61.6367 83.5203 61.4467 84.7203 61.4467C86.6403 61.4467 88.1603 61.8867 89.2803 62.7667C90.4003 63.6267 90.9603 64.8167 90.9603 66.3367C90.9603 67.4367 90.7703 68.3567 90.3903 69.0967C90.0303 69.8167 89.5503 70.4267 88.9503 70.9267C88.3703 71.4067 87.7603 71.8467 87.1203 72.2467C86.4003 72.6867 85.8603 73.0667 85.5003 73.3867C85.1403 73.6867 84.8703 74.0067 84.6903 74.3467C84.5303 74.6667 84.3603 75.0867 84.1803 75.6067H79.3203ZM81.0003 83.5267C79.9803 83.5267 79.2803 83.3067 78.9003 82.8667C78.5203 82.4067 78.3303 81.8967 78.3303 81.3367C78.3303 80.6967 78.4603 80.1167 78.7203 79.5967C79.0003 79.0767 79.4003 78.6667 79.9203 78.3667C80.4603 78.0467 81.1203 77.8867 81.9003 77.8867C82.7203 77.8867 83.3503 78.0867 83.7903 78.4867C84.2503 78.8867 84.4803 79.4367 84.4803 80.1367C84.4803 81.2767 84.1503 82.1267 83.4903 82.6867C82.8503 83.2467 82.0203 83.5267 81.0003 83.5267Z" fill="url(#paint2_linear_136_2234)"/>
<defs>
<filter id="filter0_dd_136_2234" x="8" y="12" width="104" height="104" filterUnits="userSpaceOnUse" color-interpolation-filters="sRGB">
<feFlood flood-opacity="0" result="BackgroundImageFix"/>
<feColorMatrix in="SourceAlpha" type="matrix" values="0 0 0 0 0 0 0 0 0 0 0 0 0 0 0 0 0 0 127 0" result="hardAlpha"/>
<feOffset dx="2" dy="6"/>
<feGaussianBlur stdDeviation="2"/>
<feComposite in2="hardAlpha" operator="out"/>
<feColorMatrix type="matrix" values="0 0 0 0 0 0 0 0 0 0 0 0 0 0 0 0 0 0 0.25 0"/>
<feBlend mode="normal" in2="BackgroundImageFix" result="effect1_dropShadow_136_2234"/>
<feColorMatrix in="SourceAlpha" type="matrix" values="0 0 0 0 0 0 0 0 0 0 0 0 0 0 0 0 0 0 127 0" result="hardAlpha"/>
<feOffset dy="4"/>
<feGaussianBlur stdDeviation="2"/>
<feComposite in2="hardAlpha" operator="out"/>
<feColorMatrix type="matrix" values="0 0 0 0 0 0 0 0 0 0 0 0 0 0 0 0 0 0 0.25 0"/>
<feBlend mode="normal" in2="effect1_dropShadow_136_2234" result="effect2_dropShadow_136_2234"/>
<feBlend mode="normal" in="SourceGraphic" in2="effect2_dropShadow_136_2234" result="shape"/>
</filter>
<linearGradient id="paint0_linear_136_2234" x1="41.5" y1="44" x2="59.0001" y2="116.183" gradientUnits="userSpaceOnUse">
<stop stop-color="#3FC5FF"/>
<stop offset="1" stop-color="#3FC5FF" stop-opacity="0"/>
</linearGradient>
<linearGradient id="paint1_linear_136_2234" x1="22" y1="13.5" x2="107.5" y2="96" gradientUnits="userSpaceOnUse">
<stop stop-color="white"/>
<stop offset="0.494792" stop-color="white" stop-opacity="0.17"/>
<stop offset="1" stop-color="white" stop-opacity="0.26"/>
</linearGradient>
<linearGradient id="paint2_linear_136_2234" x1="23.0445" y1="35.8016" x2="95.0344" y2="42.7696" gradientUnits="userSpaceOnUse">
<stop stop-color="#03B3FF"/>
<stop offset="1" stop-color="white"/>
</linearGradient>
</defs>
</svg>
