<svg width="118" height="118" viewBox="0 0 118 118" fill="none" xmlns="http://www.w3.org/2000/svg">
<path d="M59 116.683C91.2838 116.683 117.467 90.864 117.467 59C117.467 27.136 91.2838 1.31665 59 1.31665C26.7162 1.31665 0.533325 27.136 0.533325 59C0.533325 90.864 26.7162 116.683 59 116.683Z" fill="url(#paint0_linear_297_12916)" stroke="url(#paint1_linear_297_12916)"/>
<g filter="url(#filter0_dd_297_12916)">
<circle cx="59" cy="59" r="47" fill="#222222"/>
<circle cx="59" cy="59" r="46.5" stroke="#343434"/>
</g>
<path d="M21.5379 71.4667C20.5179 71.4667 19.5479 71.3467 18.6279 71.1067C17.7079 70.8467 16.9079 70.4967 16.2279 70.0567L16.2879 64.9267C16.7679 65.2467 17.3179 65.5467 17.9379 65.8267C18.5779 66.1067 19.2379 66.3367 19.9179 66.5167C20.5979 66.6767 21.2179 66.7567 21.7779 66.7567C22.0979 66.7567 22.3679 66.7167 22.5879 66.6367C22.8079 66.5567 22.9879 66.4467 23.1279 66.3067C23.2879 66.1467 23.3979 65.9667 23.4579 65.7667C23.5379 65.5467 23.5779 65.2967 23.5779 65.0167C23.5779 64.6567 23.4779 64.3267 23.2779 64.0267C23.0779 63.7067 22.8079 63.3867 22.4679 63.0667C22.1479 62.7467 21.7779 62.4167 21.3579 62.0767C20.7379 61.5367 20.2079 60.9767 19.7679 60.3967C19.3279 59.8167 18.9879 59.1867 18.7479 58.5067C18.5279 57.8067 18.4179 57.0367 18.4179 56.1967C18.4179 55.2167 18.5879 54.3167 18.9279 53.4967C19.2879 52.6767 19.7979 51.9667 20.4579 51.3667C21.1179 50.7467 21.8979 50.2767 22.7979 49.9567C23.6979 49.6167 24.6879 49.4467 25.7679 49.4467C26.8879 49.4467 27.9679 49.5867 29.0079 49.8667C30.0679 50.1267 31.0079 50.5067 31.8279 51.0067L29.8179 55.3567C29.1979 55.0167 28.5279 54.7167 27.8079 54.4567C27.0879 54.1967 26.4079 54.0667 25.7679 54.0667C25.3679 54.0667 25.0479 54.1267 24.8079 54.2467C24.5879 54.3467 24.4279 54.4867 24.3279 54.6667C24.2279 54.8267 24.1579 55.0067 24.1179 55.2067C24.0979 55.3867 24.0879 55.5567 24.0879 55.7167C24.0879 55.9967 24.1379 56.2767 24.2379 56.5567C24.3579 56.8367 24.5779 57.1467 24.8979 57.4867C25.2179 57.8067 25.6679 58.2067 26.2479 58.6867C26.9879 59.2667 27.5779 59.8567 28.0179 60.4567C28.4779 61.0567 28.8179 61.6867 29.0379 62.3467C29.2579 63.0067 29.3679 63.7267 29.3679 64.5067C29.3679 65.5867 29.1979 66.5567 28.8579 67.4167C28.5379 68.2767 28.0479 69.0067 27.3879 69.6067C26.7279 70.2067 25.9079 70.6667 24.9279 70.9867C23.9679 71.3067 22.8379 71.4667 21.5379 71.4667ZM34.2196 71.1667L37.6396 54.4867H33.3496L34.4296 49.7467H48.7996L47.6896 54.4867H43.3696L39.9496 71.1667H34.2196ZM43.5123 71.1667L54.0123 49.7467H61.4523L62.8623 71.1667H57.2823L57.2223 67.1467H51.0723L49.4523 71.1667H43.5123ZM53.2023 62.5867H57.1023L57.0123 56.4367C56.9923 55.9567 56.9823 55.4867 56.9823 55.0267C57.0023 54.5467 57.0223 54.0967 57.0423 53.6767H56.9523C56.8123 54.1167 56.6723 54.5567 56.5323 54.9967C56.3923 55.4167 56.2223 55.8567 56.0223 56.3167L53.2023 62.5867ZM64.8619 71.1667L69.3919 49.7467H74.8819C77.2619 49.7467 79.0719 50.2267 80.3119 51.1867C81.5719 52.1467 82.2019 53.5967 82.2019 55.5367C82.2019 56.8567 81.9919 57.9667 81.5719 58.8667C81.1519 59.7467 80.6419 60.4567 80.0419 60.9967C79.4419 61.5167 78.8719 61.9167 78.3319 62.1967L81.9319 71.1667H75.6919L73.1119 63.3667H72.2119L70.5919 71.1667H64.8619ZM73.8019 59.0167C74.1019 59.0167 74.4119 58.9667 74.7319 58.8667C75.0519 58.7467 75.3419 58.5667 75.6019 58.3267C75.8819 58.0867 76.1019 57.7767 76.2619 57.3967C76.4219 56.9967 76.5019 56.5167 76.5019 55.9567C76.5019 55.4367 76.3819 55.0067 76.1419 54.6667C75.9019 54.3067 75.4619 54.1267 74.8219 54.1267H74.1619L73.1719 59.0167H73.8019ZM86.1405 71.1667L89.5605 54.4867H85.2705L86.3505 49.7467H100.72L99.6105 54.4867H95.2905L91.8705 71.1667H86.1405Z" fill="url(#paint2_linear_297_12916)"/>
<defs>
<filter id="filter0_dd_297_12916" x="8" y="12" width="104" height="104" filterUnits="userSpaceOnUse" color-interpolation-filters="sRGB">
<feFlood flood-opacity="0" result="BackgroundImageFix"/>
<feColorMatrix in="SourceAlpha" type="matrix" values="0 0 0 0 0 0 0 0 0 0 0 0 0 0 0 0 0 0 127 0" result="hardAlpha"/>
<feOffset dx="2" dy="6"/>
<feGaussianBlur stdDeviation="2"/>
<feComposite in2="hardAlpha" operator="out"/>
<feColorMatrix type="matrix" values="0 0 0 0 0 0 0 0 0 0 0 0 0 0 0 0 0 0 0.25 0"/>
<feBlend mode="normal" in2="BackgroundImageFix" result="effect1_dropShadow_297_12916"/>
<feColorMatrix in="SourceAlpha" type="matrix" values="0 0 0 0 0 0 0 0 0 0 0 0 0 0 0 0 0 0 127 0" result="hardAlpha"/>
<feOffset dy="4"/>
<feGaussianBlur stdDeviation="2"/>
<feComposite in2="hardAlpha" operator="out"/>
<feColorMatrix type="matrix" values="0 0 0 0 0 0 0 0 0 0 0 0 0 0 0 0 0 0 0.25 0"/>
<feBlend mode="normal" in2="effect1_dropShadow_297_12916" result="effect2_dropShadow_297_12916"/>
<feBlend mode="normal" in="SourceGraphic" in2="effect2_dropShadow_297_12916" result="shape"/>
</filter>
<linearGradient id="paint0_linear_297_12916" x1="41.4999" y1="44" x2="59" y2="116.183" gradientUnits="userSpaceOnUse">
<stop stop-color="#3FC5FF"/>
<stop offset="1" stop-color="#3FC5FF" stop-opacity="0"/>
</linearGradient>
<linearGradient id="paint1_linear_297_12916" x1="21.9999" y1="13.5" x2="107.5" y2="96" gradientUnits="userSpaceOnUse">
<stop stop-color="white"/>
<stop offset="0.494792" stop-color="white" stop-opacity="0.17"/>
<stop offset="1" stop-color="white" stop-opacity="0.26"/>
</linearGradient>
<linearGradient id="paint2_linear_297_12916" x1="14.9999" y1="49.0001" x2="98.9999" y2="71.0001" gradientUnits="userSpaceOnUse">
<stop stop-color="#03B3FF"/>
<stop offset="1" stop-color="white"/>
</linearGradient>
</defs>
</svg>
